

Release info:

General
Format : Matroska
Format version : Version 2
File size : 689 MiB
Duration : 2h 45mn
Overall bit rate : 583 Kbps

Video
ID : 1
Format : MPEG-4 Visual
Format profile : Advanced Simple@L5
Format settings, BVOP : Yes
Format settings, QPel : No
Format settings, GMC : No warppoints
Format settings, Matrix : Default (H.263)
Codec ID : V_MS/VFW/FOURCC / XVID
Codec ID/Hint : XviD
Duration : 2h 45mn
Bit rate : 491 Kbps
Width : 608 pixels
Height : 256 pixels
Display aspect ratio : 2.40:1
Frame rate mode : Constant
Frame rate : 23.976 fps
Color space : YUV
Chroma subsampling : 4:2:0
Bit depth : 8 bits
Scan type : Progressive
Compression mode : Lossy
Bits/(Pixel*Frame) : 0.132
Stream size : 581 MiB (84%)
Writing library : XviD 64
Language : English
Default : Yes
Forced : No

Audio
ID : 2
Format : MPEG Audio
Format version : Version 1
Format profile : Layer 3
Mode : Joint stereo
Mode extension : MS Stereo
Muxing mode : Header stripping
Codec ID : A_MPEG/L3
Codec ID/Hint : MP3
Duration : 2h 45mn
Bit rate mode : Constant
Bit rate : 80.0 Kbps
Channel(s) : 2 channels
Sampling rate : 48.0 KHz
Compression mode : Lossy
Stream size : 94.6 MiB (14%)
Language : English
Default : Yes
Forced : No

Source:
credit to original movie ripper P2P (Thanks)

IMDB Info:

With the help of his mentor, a slave-turned-bounty hunter sets out to rescue his wife from a brutal Mississippi plantation owner.

Director: Quentin Tarantino
Writer: Quentin Tarantino
Stars: Jamie Foxx, Christoph Waltz and Leonardo DiCaprio

Genres: Action | Drama | Western
 
http://www.imdb.com/title/tt1853728/

Screen Shot:
 
http://www.shotpix.com/images/14128411605930556840.png 
http://www.shotpix.com/images/13254010977714428481.png 
http://www.shotpix.com/images/85203544817724928675.png 
http://www.shotpix.com/images/32004880615893170750.png 
http://www.shotpix.com/images/92534737528017553873.png 
http://www.shotpix.com/images/45104198225956081608.png